<svg xmlns="http://www.w3.org/2000/svg" width="150" height="106" fill="none"><path fill="#000" d="M66.837.032c-.231.042-3.878.274-8.115.526-4.236.232-8.6.57-9.696.738-1.096.169-2.53.359-3.162.443-3.035.337-6.007 1.138-7.166 1.981-1.433 1.012-5.143 6.577-7.862 11.804-.57 1.096-1.202 2.234-1.391 2.53-.211.295-.991 1.812-1.77 3.393-.78 1.58-1.54 2.993-1.708 3.12-.211.19-1.94.274-5.776.316-6.154.084-6.534.168-7.25 1.602-.464.927-.464 1.602 0 2.508.695 1.412 1.348 1.602 5.712 1.644 2.129.021 3.962.127 4.068.232.253.253-.211 1.454-.633 1.623-.19.084-2.023.232-4.047.316-3.604.169-4.763.358-5.965.99-.822.401-2.445 2.15-4.005 4.259-1.18 1.601-1.475 1.854-2.93 2.592-1.854.949-2.192 1.328-3.246 3.773C.905 46.741.631 48.68.21 56.268c-.38 6.682-.253 12.162.464 21.1l.337 4.194-.506 1.075C.02 83.67.02 83.775.02 90.541c.022 8.474.127 9.127 2.087 11.53 1.117 1.37 2.382 2.319 3.879 2.888 1.117.421 1.644.442 8.557.527 4.216.042 7.905-.021 8.685-.148 1.939-.295 3.878-1.328 5.227-2.761 1.813-1.96 2.36-3.647 2.508-7.567.064-1.834.148-2.466.4-2.635.233-.168 1.392-.19 3.963-.063 2.15.084 3.731.084 3.837-.021.105-.106.253-.611.316-1.117.126-.886.358-1.16 4.574-5.27 5.67-5.522 7.693-7.356 8.136-7.356.21 0 1.96 1.686 3.92 3.73 1.96 2.066 4.448 4.659 5.502 5.776 2.255 2.319 2.382 2.698 1.223 3.71-.401.358-.738.759-.738.885 0 .316 18.844.316 36.74 0 7.44-.126 14.965-.253 16.693-.253l3.162-.042.147 2.002c.211 2.951.59 5.038 1.075 6.113.232.527 1.117 1.623 1.961 2.466 1.349 1.349 1.707 1.581 3.077 2.003 1.497.463 1.771.485 9.548.485 7.905 0 8.031 0 9.486-.506 1.264-.422 1.707-.738 2.972-2.003 2.845-2.824 3.035-3.625 3.035-12.246 0-6.471-.021-6.556-.527-7.8-.611-1.475-.632-1.685-.232-5.88.864-8.98.991-15.282.422-22.617-.422-5.775-.78-8.157-1.413-9.443-.274-.59-.59-1.286-.674-1.58-.295-.991-1.138-1.771-2.782-2.657-1.476-.78-1.792-1.053-2.93-2.634-2.171-2.951-3.183-3.92-4.722-4.553-1.243-.506-1.728-.57-5.206-.696-4.068-.147-4.342-.21-4.722-1.244-.358-.906-.021-.97 3.794-.885 3.225.064 3.626.021 4.574-.38 2.298-.99 2.424-3.835.232-5.037-.59-.316-1.349-.358-5.944-.358-3.815-.021-5.396-.084-5.754-.274-.295-.169-.928-1.244-1.708-2.846-.674-1.412-1.77-3.52-2.445-4.68a70.178 70.178 0 0 1-1.623-2.95c-1.58-3.31-5.965-9.675-7.272-10.56-1.264-.864-3.035-1.328-7.019-1.876C95.904.622 87.43.095 76.322.032c-4.974-.043-9.253-.043-9.485 0ZM87.6 6.06c1.223.105 4.406.337 7.062.506 5.375.358 7.356.59 12.267 1.496.822.148 1.855 1.286 3.12 3.394a118.75 118.75 0 0 0 1.728 2.846c.253.442.485.864.485.97 0 .083.295.631.653 1.222.38.569 1.096 1.833 1.623 2.824.907 1.75 2.129 4.026 2.551 4.785.759 1.37 1.707 3.667 1.707 4.173 0 .548-.042.57-.78.464-1.412-.169-5.164-.8-7.925-1.349-1.497-.274-4.532-.696-6.745-.927-2.234-.211-4.764-.485-5.628-.612-4.195-.527-10.434-.737-22.554-.737-12.71 0-18 .19-23.502.843-1.391.168-4.047.442-5.902.632-1.855.19-3.984.485-4.742.654-2.045.442-7.99 1.39-8.959 1.433-.843.02-.843.02-.822-.717.021-.716.928-2.74 2.382-5.375.4-.695.885-1.644 1.117-2.108.485-.97.633-1.243 1.602-2.95.4-.696.99-1.75 1.307-2.32 1.665-3.056 1.813-3.308 3.12-5.353.8-1.244 1.918-1.897 3.203-1.918.401 0 1.497-.148 2.425-.316 3.794-.675 4.384-.738 16.546-1.56 1.918-.127 4.047-.274 4.742-.316 2.298-.148 17.664.084 19.92.316ZM67.491 30.785c2.318 1.075 3.667 2.34 4.869 4.51l.99 1.834v2.213c.022 1.328-.105 2.53-.273 3.015-.359 1.053-.211 1.538.906 2.719 1.94 2.065 1.77 2.508-1.012 2.677-.99.084-1.918.252-2.066.4-.379.38-.97.316-1.58-.169-.654-.505-.76-.505-3.057-.063-1.813.337-1.876.337-3.583-.126-3.668-.97-6.492-3.92-7.125-7.462-.126-.675-.21-1.56-.168-2.002.105-1.37.611-1.16 3.077 1.37 1.244 1.264 2.635 2.466 3.099 2.698 1.897.927 4.637.232 5.86-1.497.505-.738.59-1.054.632-2.424.021-1.918-.4-2.782-2.424-4.848-1.834-1.876-2.487-2.719-2.487-3.162 0-.358.168-.4 1.39-.4 1.118 0 1.666.126 2.952.717ZM83.089 45.96c1.306 1.307 1.517 1.686 1.18 2.129-.527.716-4.047 3.9-4.3 3.9-.4 0-3.12-2.74-3.12-3.162 0-.527 3.858-4.216 4.427-4.216.295 0 .97.506 1.813 1.349Zm5.48 3.098c.885.696 1.77 1.96 1.77 2.55 0 .19-.632.95-1.39 1.687a99.97 99.97 0 0 0-2.572 2.53c-.632.674-1.35 1.222-1.56 1.222-.232 0-.78-.4-1.222-.906-2.15-2.361-2.193-2.424-1.413-3.162.274-.253 1.455-1.391 2.614-2.53 1.201-1.159 2.319-2.044 2.55-2.044.232 0 .78.295 1.223.653Zm-12.984 1.75c.632.59 1.918 1.876 2.845 2.846.928.99 2.108 2.213 2.635 2.76 2.951 3.015 4.216 4.448 4.216 4.828 0 .61-1.96 1.707-3.014 1.707-1.328 0-2.382-.738-5.396-3.836-2.467-2.509-2.972-2.93-3.352-2.825-.99.316-.99.886-.042 2.361 1.307 1.981 1.96 3.73 2.066 5.46.063 1.243-.021 1.749-.548 3.182-.338.927-.907 2.108-1.286 2.614-.359.506-.654 1.011-.654 1.117 0 .4.696.99 1.16.99 1.054 0 3.056-4.215 3.393-7.124.127-1.117.19-1.307.57-1.307.231 0 .59.127.758.295.359.317 2.15.97 2.677.97.169 0 .78.422 1.328.949.548.526 1.391 1.075 1.834 1.243.717.232.864.4 1.096 1.223.19.716.632 1.328 1.623 2.34 1.391 1.39 1.665 2.065 1.033 2.423-.19.106-1.012.843-1.855 1.665-.822.802-2.276 2.193-3.246 3.099l-1.75 1.644-3.014-.147c-2.276-.127-3.14-.085-3.52.105-.274.147-1.16.927-1.981 1.728-.801.78-1.581 1.434-1.707 1.434-.359 0-10.392-10.287-10.708-10.961-.148-.316.147-.696 1.538-2.108.949-.948 1.813-1.939 1.898-2.17.105-.254.252-2.699.337-5.418.084-2.719.232-5.164.337-5.438.21-.527 1.728-2.087 4.616-4.68 2.53-2.297 2.656-2.36 4.11-2.17.633.084 1.118.379 2.003 1.2Zm16.968 4.911c.8.843 1.37 1.623 1.37 1.897 0 .295-.864 1.307-2.677 3.078-2.698 2.634-5.101 4.784-5.375 4.784-.232 0-.801-.653-.801-.906 0-.148.443-.57.97-.97 1.328-1.011 2.065-2.002 1.918-2.592-.085-.274-.464-.843-.886-1.286-.4-.422-.737-.885-.737-1.012 0-.105.442-.611 1.012-1.096a85.552 85.552 0 0 0 2.213-2.087c.674-.674 1.328-1.222 1.433-1.222.126 0 .822.632 1.56 1.412Zm-81.362.59c.927.169 3.162.464 4.953.633 1.792.19 3.752.442 4.321.548 1.18.232 3.794.484 9.696.906 4.005.295 4.933.485 5.65 1.138.379.338 1.095 1.75 1.433 2.888.379 1.18.61 3.878.379 4.469l-.21.548-5.207-.148c-2.867-.063-6.956-.274-9.106-.443-2.15-.168-6.787-.505-10.307-.737-3.984-.274-6.534-.527-6.703-.675-.253-.19-.295-1.054-.232-4.68.042-2.444.148-4.573.253-4.742.21-.316 2.255-.21 5.08.295Zm132.687.021c.316.822.274 8.832-.063 9.106-.127.127-1.771.316-3.626.443-1.854.126-6.555.485-10.433.759-8.621.632-16.61.948-17.158.674-.358-.169-.379-.38-.274-2.129.127-2.297.949-4.784 1.834-5.649.759-.716 1.813-.906 6.64-1.222 5.269-.359 7.25-.548 9.801-.907 1.222-.19 3.119-.442 4.216-.569 1.096-.126 2.866-.358 3.899-.527 2.045-.337 2.93-.442 4.174-.485.674-.042.822.043.99.506Zm-48.142 5.207c.885.906 1.77 2.129 1.77 2.424 0 .38-5.564 5.88-6.576 6.513-.274.147-1.476-.675-2.319-1.623-1.328-1.434-1.243-1.581 2.298-4.996 3.478-3.33 3.73-3.456 4.827-2.318Zm1.306 7.735c.38.232.738.57.801.738.148.38 1.075.422 1.918.085.317-.127 1.307-.232 2.172-.232 4.826-.022 8.494 3.14 9.358 8.051.569 3.289.042 3.33-3.014.296-3.267-3.267-4.7-3.816-7.04-2.74-1.265.59-1.96 1.306-2.382 2.487-.674 1.939-.105 3.857 1.729 5.775 2.508 2.614 3.267 3.52 3.161 3.794-.147.4-2.297.38-3.393-.042-.464-.169-1.033-.38-1.265-.443-.632-.19-2.972-1.897-3.562-2.592-1.665-1.982-2.319-5.08-1.729-8.052.38-2.003.295-2.487-.59-3.31-.864-.822-.716-1.243 1.054-2.824.864-.78 1.686-1.412 1.834-1.412.147 0 .569.19.948.421ZM59.333 73.11c.886.927 2.214 2.34 2.973 3.098 4.278 4.363 8.557 8.98 8.726 9.422.19.464.042.675-1.792 2.403-2.15 2.045-2.55 2.297-3.077 1.855-.19-.148-2.72-2.782-5.628-5.839-2.909-3.077-5.839-6.155-6.492-6.85-.675-.696-1.223-1.433-1.223-1.623 0-.506 3.9-4.195 4.448-4.195.274 0 1.012.612 2.066 1.729Z"/></svg>